<?xml version="1.0" encoding="UTF-8" standalone="no"?>
<!DOCTYPE svg PUBLIC "-//W3C//DTD SVG 1.1//EN" "http://www.w3.org/Graphics/SVG/1.1/DTD/svg11.dtd">
<svg width="100%" height="100%" viewBox="0 0 1118 785" version="1.1" xmlns="http://www.w3.org/2000/svg" xmlns:xlink="http://www.w3.org/1999/xlink" xml:space="preserve" xmlns:serif="http://www.serif.com/" style="fill-rule:evenodd;clip-rule:evenodd;stroke-linejoin:round;stroke-miterlimit:2;">
    <g transform="matrix(1,0,0,1,-13.16,-35.211748)">
        <path d="M364.27,560.99C361.51,561.6 358.78,562.34 355.96,562.6C334.35,564.23 312.66,563.63 291,563.74C207.33,563.73 123.67,563.74 40,563.73C31.05,563.64 22.09,564.06 13.16,563.34C13.46,558.28 12.61,553.09 13.95,548.14C22.96,548.69 31.98,548.36 41,548.44C141,548.41 241,548.49 340.99,548.4C351.8,548.6 362.51,546.9 373.27,546.2C393.1,543.01 412.47,537.15 430.78,528.9C447.22,522.29 462.28,512.77 476.76,502.65C519.76,471.14 552.04,425.21 566.66,373.91C562.19,380.95 558.95,388.67 554.6,395.77C535.91,426.34 511.28,453.48 481.61,473.7C449.63,496.81 411.77,511.1 372.9,517.16C370.28,517.5 367.63,517.52 364.99,517.55C365.98,517.87 366.98,518.2 367.98,518.53C356.3,518.48 344.68,520.15 333,520.31C226.5,520.2 120,520.41 13.51,520.21C13.41,515.68 13.46,511.15 13.36,506.63C15.53,506.25 17.7,505.88 19.91,505.82C124.94,505.89 229.97,505.82 335,505.85C345.76,505.71 356.58,505.98 367.25,504.32C388.53,501.94 409.14,495.6 428.93,487.58C443.92,481 458.67,473.64 471.96,464.01C487.24,453.61 501.32,441.45 513.8,427.82C523.73,415.95 533.72,404.01 541.63,390.66C548.18,380.42 553.49,369.42 558.25,358.25C561.91,349.01 566.13,339.89 567.94,330.05C560.22,345.99 551.4,361.47 540.56,375.51C530.19,389.64 517.77,402.08 504.82,413.83C479.43,436.29 449.42,453.44 417.26,464.11C408.58,466.55 400.04,469.5 391.19,471.29C371.07,475.38 350.53,477.4 330,477.16C270,477.14 210,477.16 150,477.15C104.48,477.03 58.95,477.39 13.44,476.98C13.43,472.53 13.46,468.09 13.4,463.65C112.6,463.39 211.8,463.61 311,463.54C324.33,463.46 337.67,463.72 351.01,463.39C372.66,461.42 394.34,457.97 414.86,450.58C451.48,438.16 485.02,416.68 511.55,388.54C523.88,375.96 534.41,361.72 543.79,346.83C549.04,337.29 554.64,327.88 558.74,317.75C562.62,307.99 566.73,298.28 569.4,288.09C559.64,306.21 549.55,324.39 536.07,340.06C516.75,363.93 493.09,384.36 466.33,399.46C450.99,408.86 434.29,415.75 417.31,421.53C400.51,427.21 383.07,431 365.41,432.64C356.34,434.06 347.14,433.6 338,433.67C229.79,433.72 121.59,433.6 13.39,433.73C13.46,429.35 13.47,424.98 13.38,420.61C32.58,420.26 51.79,420.55 71,420.45C163.66,420.43 256.32,420.49 348.98,420.43C384.05,418.78 418.96,409.76 449.94,393.09C467.57,383.71 484.39,372.62 499.07,359.03C530.16,331.41 554.2,295.75 567.25,256.2C574.21,236.47 577.31,215.57 585.44,196.24C592.3,178.51 601.86,162.01 612.23,146.13C617.45,138.77 622.93,131.59 628.56,124.55C642.6,108.22 658.58,93.51 676.3,81.25C707.61,58.64 744.52,44.39 782.48,37.91C794.86,35.76 807.45,35.13 820,35.22C922.95,35.32 1025.89,35.07 1128.84,35.35C1130.13,39.6 1130.79,44.07 1130.01,48.49C1100.34,48.13 1070.67,48.44 1041,48.34C965.33,48.35 889.67,48.31 814,48.36C793.12,49.23 772.24,52.5 752.32,58.91C731.78,64.82 712.6,74.58 694.27,85.43C682.05,93.61 669.91,102.06 659.44,112.44C648.12,122.52 638.01,133.9 629.07,146.12C622.31,155.01 616.19,164.38 611.09,174.32C604,186.13 598.79,198.94 594.1,211.86C592.67,215.75 591.8,219.8 590.94,223.85C597.17,210.94 604.25,198.39 612.59,186.72C620.73,174.13 630.96,163.08 641.38,152.37C654.99,138.39 670.64,126.56 687,116C722.47,94.24 763.16,80.61 804.79,78.24C816.5,77.26 828.26,77.62 840,77.55C936.74,77.6 1033.47,77.45 1130.21,77.62C1130.32,82.23 1130.58,86.88 1129.9,91.46C1097.27,91.07 1064.63,91.41 1032,91.29C978,91.3 924,91.28 870,91.29C849,91.36 827.99,91.13 807,91.45C782.64,93.19 758.44,98.12 735.62,106.91C718.41,113.24 702.44,122.36 687,132.15C642.42,162.13 608.4,207.33 591.53,258.3C590.55,261.47 589.82,264.71 589.1,267.94C609.52,223.01 644.07,185.09 685.68,158.83C692.35,155.14 698.89,151.21 705.65,147.68C722.59,139.27 740.41,132.69 758.72,127.96C780.71,122.62 803.38,120.15 826,120.5C927.4,120.53 1028.8,120.38 1130.2,120.57C1130.31,125.21 1130.63,129.89 1129.79,134.48C1100.53,134.1 1071.26,134.42 1042,134.32C967.67,134.32 893.33,134.31 819,134.32C751.32,133.39 684.76,164.61 640,214.96C615.62,242.17 597.62,275 587.44,310.07C591.43,304.22 593.86,297.51 597.59,291.5C615.75,259.7 641.12,232.11 670.89,210.82C694.16,193.96 720.4,180.97 748.25,173.72C753.08,171.84 758.07,170.37 763.18,169.43C776.01,167.03 788.91,164.41 802.01,164.32C827.67,163.95 853.34,164.25 879,164.16C929,164.15 979,164.15 1029,164.15C1062.75,164.25 1096.51,163.94 1130.26,164.31C1130.3,168.68 1130.62,173.09 1129.78,177.41C1099.19,176.97 1068.59,177.35 1038,177.22C969.67,177.23 901.33,177.22 833,177.23C821.66,177.27 810.3,176.97 798.98,177.74C775.94,179.67 753.18,184.79 731.64,193.22C698.83,206.02 668.82,225.97 644.52,251.49C620.87,276.4 602.02,306.1 590.69,338.6C588.72,343.56 587.27,348.7 586.1,353.9C600.87,322.24 621.99,293.41 648.34,270.42C676.5,246.29 709.18,226.72 745.13,216.91C764.19,210.94 784.04,207.72 803.95,206.48C912.63,206.3 1021.32,206.58 1130,206.34C1130.53,210.81 1130.36,215.33 1130.17,219.81C1024.11,219.67 918.05,219.8 811.99,219.74C789.96,220.62 767.96,223.79 746.85,230.26C712.23,241.07 679.79,259.43 653.45,284.45C646.12,291.1 639.3,298.29 632.73,305.67C623.35,317.56 613.98,329.6 606.94,343.07C601.27,353.05 596.18,363.37 592.08,374.1C589.73,380.3 587.11,386.47 586.06,393.06C590.37,386.44 593.54,379.18 597.56,372.39C607.53,356.51 618.58,341.17 631.93,327.93C639.3,320.67 646.38,313.04 654.64,306.75C686.76,280.74 725.02,261.97 765.75,254.35C775.98,251.86 786.51,250.78 796.98,249.78C809.31,249.28 821.66,249.36 834,249.35C932.75,249.41 1031.49,249.2 1130.24,249.46C1130.34,253.84 1130.48,258.24 1130.04,262.61C1062.36,262.35 994.68,262.57 927,262.5C889.34,262.54 851.67,262.41 814.01,262.56C805.26,263.4 796.43,263 787.73,264.38C776.1,265.47 764.72,268.24 753.32,270.66C736.75,275.67 720.38,281.63 705.15,289.93C686.18,298.97 669.38,311.84 653.59,325.57C645.21,333.56 636.89,341.67 629.7,350.78C620.65,361.03 613.4,372.69 606.35,384.35C596.37,401.82 588.3,420.42 583.08,439.87C598.34,407.38 620.29,377.98 647.57,354.6C672.95,332.49 702.72,315.33 734.71,304.78C757.45,297.58 781.11,293.01 804.98,292.36C817.61,291.13 830.32,291.91 843,291.69C938.72,291.72 1034.44,291.63 1130.16,291.73C1130.32,296.6 1130.7,301.54 1129.67,306.35C1101.78,305.88 1073.89,306.29 1046,306.15C966,306.21 886,306.04 806,306.24C787.94,306.08 769.93,308.94 752.53,313.68C735.21,318.65 718.09,324.67 702.28,333.42C674.08,348.36 648.87,368.89 628.45,393.39C614.25,411 601.95,430.22 592.92,450.99C589.14,460.15 585.04,469.31 583.08,479.08C587.75,471.94 590.95,463.95 595.77,456.9C604.8,441.39 616.38,427.59 628.34,414.3C658.64,382.97 696.56,358.54 738.52,346.24C753.46,341.45 768.87,338.09 784.52,336.74C787.97,336.23 791.47,336.34 794.94,336.64C793.6,336.29 792.26,335.94 790.94,335.58C801.63,335.46 812.3,334.43 823,334.79C925.39,334.82 1027.79,334.76 1130.18,334.81C1130.37,339.34 1130.38,343.87 1130.19,348.39C1021.79,348.52 913.39,348.38 804.99,348.47C794.7,348.24 784.57,350.31 774.38,351.43C741.42,357.07 709.68,369.52 681.55,387.59C659.35,402.13 639.75,420.47 623.11,441.1C610.75,457.46 599.7,474.93 591.62,493.81C587.83,502.99 583.55,512.12 581.65,521.93C586.42,514.43 589.9,506.2 594.84,498.8C599.03,492.67 602.77,486.22 607.44,480.44C614.78,471.18 622.04,461.79 630.49,453.5C642.04,442.26 654.09,431.44 667.65,422.64C683.29,411.4 700.75,403.02 718.4,395.47C743.19,385.86 769.46,379.89 796.01,378.37C840.34,378.2 884.67,378.34 929,378.29C996.08,378.37 1063.16,378.13 1130.24,378.41C1130.34,382.81 1130.45,387.22 1130.08,391.62C1027.39,391.38 924.69,391.59 822,391.51C810.28,391.64 798.51,391.02 786.87,392.62C765.97,394.47 745.64,400.1 725.92,407.06C692.13,420.26 661.18,440.82 636.41,467.38C615.71,488.51 599.89,514.07 588.28,541.19C585.51,549.16 581.81,556.86 580.12,565.17C582.9,561.34 584.79,557 586.99,552.84C596.64,535.79 607.7,519.45 621.02,505.04C631.48,494.11 642.14,483.24 654.37,474.25C660.71,469.56 666.97,464.74 673.7,460.61C684.18,454.39 694.45,447.7 705.76,443.04C713.44,439.94 721.04,436.59 728.9,433.97C748.78,427.8 769.18,422.9 790.01,421.55C810.67,420.9 831.34,421.24 852,421.16L1077.01,421.16C1094.75,421.25 1112.5,420.96 1130.25,421.31C1130.35,425.47 1130.37,429.63 1130.2,433.79C1024.47,433.6 918.73,433.77 813,433.7C796.04,434.64 778.94,435.29 762.32,439.14C726.26,445.89 692.45,462.31 663.27,484.32C658.72,488.07 654.26,491.93 649.73,495.7C615.11,526.52 589.39,567.37 577.31,612.17C570.16,643.8 558.98,674.9 541,702.07C532.62,715.34 522.88,727.73 512.16,739.19C507.69,744.7 502.36,749.39 496.99,753.99C483.57,766.3 468.7,777.02 452.88,786.03C432.92,798.07 410.89,806.3 388.43,812.28C373.59,816.27 358.33,818.64 342.99,819.49C321.33,819.91 299.66,819.58 278,819.69C190.24,819.66 102.47,819.73 14.71,819.65C13.2,815.48 13.33,811.04 13.52,806.68C63.68,806.34 113.84,806.63 164,806.53L323,806.53C346.58,806.9 370.26,803.82 392.85,796.99C421.89,788.56 449.44,774.88 473.3,756.27C478.98,751.28 485.19,746.91 490.54,741.54C498.16,733.79 506.22,726.41 512.82,717.72C534.09,691.81 550.04,661.48 558.92,629.13C550.84,645.69 541.69,661.82 530.43,676.43C518.77,691.01 506.41,705.22 491.74,716.87C479.33,727.47 465.83,736.73 451.6,744.72C443.88,749.26 435.89,753.36 427.51,756.53C413.52,762.37 399.27,767.91 384.31,770.71C371.66,773.45 358.9,775.98 345.94,776.46C340.95,776.58 336.01,777.46 331.01,777.39C225.23,777.31 119.44,777.44 13.65,777.32C13.53,772.45 12.78,767.4 14.27,762.67C59.84,763.13 105.42,762.74 151,762.87L323,762.87C332.34,762.88 341.68,762.88 351.02,762.52C367.86,761.09 384.27,756.83 400.55,752.49C435.81,740.71 468.84,721.57 495.35,695.38C519.76,671.32 539.76,642.52 552.28,610.53C554.94,603.52 557.79,596.51 558.99,589.07C554.83,596.3 551.47,603.97 547,611.02C541.21,620.13 535.4,629.26 528.62,637.68C511.26,659.3 490.73,678.56 467.12,693.19C453.46,702.69 438.29,709.67 423.03,716.17C418.78,718.06 414.33,719.45 409.9,720.87C404.02,723.19 397.94,724.87 391.79,726.26C369.46,732.55 346.14,734.58 323,734.43C219.93,734.43 116.86,734.41 13.79,734.43C13.56,729.83 13.36,725.19 14.31,720.65C120.54,720.75 226.77,720.75 332.99,720.64C350.93,720.9 368.72,717.85 386.16,713.92C422.76,704.89 457.04,687.06 485.78,662.69C497.84,652.13 508.85,640.4 518.95,627.97C538.46,602.77 553.39,573.84 561.83,543.08C547.63,573.23 527.88,600.79 503.42,623.47C469.05,655.1 426,677.52 380.07,686.45C377.15,687.09 374.21,687.66 371.26,688.13C358.09,691.42 344.44,690.8 331.03,692.12C314.69,692.39 298.34,692.14 282,692.23C200.66,692.22 119.33,692.26 37.99,692.21C29.96,692.02 21.82,692.97 13.91,691.12L13.29,691.08C13.52,686.63 13.43,682.17 13.49,677.73C120.65,677.55 227.82,677.75 334.99,677.63C346.1,677.69 357.25,676.94 368.15,674.68C386.45,672.42 404.18,666.85 421.26,660.03C452.18,647.1 480.53,627.95 503.94,603.95C516.44,590.58 528.02,576.25 537.26,560.41C545.95,545.47 553.4,529.78 559.17,513.47C560.36,510.05 561.22,506.52 561.88,502.97C554.67,517.55 546.42,531.64 536.81,544.78C527.89,556.41 518.26,567.51 507.6,577.59C492.37,592.81 474.72,605.43 455.99,615.98C425.74,633.37 391.58,643.37 357.02,647.36C332.36,648.29 307.67,647.68 283,647.86C193.14,647.85 103.29,647.87 13.44,647.85C13.45,643.73 13.45,639.61 13.38,635.5C60.92,635.17 108.46,635.45 156,635.36L320,635.36C327.44,635.32 334.91,635.67 342.32,634.75C385.54,633.2 428.03,618.93 464.04,595.11C477.62,586.34 490.37,576.22 501.59,564.56C520.48,546.08 536.13,524.31 547.82,500.61C552.52,492.19 555.56,483.01 559.26,474.13L559.06,471.16C557.02,473.78 555,476.41 553.12,479.14C534.4,511.19 508.69,539.17 478.04,560.15C461.79,571.34 444.31,580.77 425.97,588.08C410.46,594.51 394.1,598.52 377.66,601.71C369.33,603.55 360.8,604.07 352.32,604.81C344.59,605.87 336.78,605.47 329,605.53C223.8,605.45 118.59,605.69 13.39,605.41C13.45,601 13.43,596.6 13.43,592.19C119.62,592.3 225.81,592.19 332,592.25C342.88,592.5 353.71,591.3 364.48,589.94C384.73,587.83 404.38,581.89 423.26,574.44C440.79,567.64 457.2,558.22 472.64,547.53C479.17,543.22 484.96,537.95 490.89,532.87C512.25,514.66 529.86,492.31 543.94,468.09C552.61,451.85 560.47,434.94 564.89,417.01C557.13,432.11 548.6,446.87 538.44,460.49C532.33,467.7 526.72,475.34 520.12,482.13C514.59,488.25 508.37,493.72 502.46,499.47C472.38,525.41 436.53,544.87 398,554.75C386.87,557.41 375.63,559.65 364.27,560.99Z"/>
    </g>
</svg>
